#!OML:ASF E:\Steps\Project 1\Capture day 1\Session 2\Subject.ASF
:FULLY-SPECIFIED
:DEGREES
422
root -1.01164 18.0502 20.8223 -155.856 2.13947 180.654
lowerback -23.0614 -2.52067 -8.21343
upperback 0.596832 -0.93973 0.416298
thorax 13.8849 -0.955738 4.88836
lowerneck -0.125938 -6.30632 -0.205607
upperneck 25.5122 -6.60804 0.869153
head 7.9204 -2.21106 0.00348291
rclavicle 1.23246e-014 4.92986e-014
rhumerus -38.1662 -15.8321 -78.265
rradius 31.1009
rwrist -2.68972
rhand -9.12282 -57.8382
rfingers 7.12502
rthumb 16.8282 632.871
lclavicle 1.23246e-014 4.92986e-014
lhumerus -26.9834 -1.00898 81.7008
lradius 22.2908
lwrist -1.83948
lhand -23.2011 -12.6757
lfingers 7.12502
lthumb 3.24891 17.2793
rfemur -36.7501 3.98666 14.0018
rtibia 21.4144
rfoot -23.4665 -13.3692
rtoes -25.5638
lfemur -23.077 -7.44191 -20.3224
ltibia 9.92798
lfoot -9.24936 3.68935
ltoes -33.296
423
root -1.00309 18.0509 20.8059 -155.983 2.0814 180.69
lowerback -22.8968 -2.52364 -8.16543
upperback 0.589642 -0.981554 0.451452
thorax 13.7878 -0.970411 4.88681
lowerneck 0.0575334 -6.34344 -0.281795
upperneck 25.3091 -6.68896 0.97078
head 7.82672 -2.25876 0.0499005
rclavicle -4.96962e-015 -1.59028e-014
rhumerus -38.3232 -15.7964 -78.1114
rradius 30.9908
rwrist -2.78156
rhand -8.46704 -57.6649
rfingers 7.12502
rthumb 17.4594 633.099
lclavicle -4.96962e-015 -1.59028e-014
lhumerus -27.2401 -1.08153 81.711
lradius 22.5568
lwrist -1.89339
lhand -22.7991 -12.483
lfingers 7.12502
lthumb 3.63709 17.4657
rfemur -36.7927 3.85838 13.5174
rtibia 21.1883
rfoot -23.316 -13.2079
rtoes -24.8462
lfemur -22.9232 -7.62482 -20.2441
ltibia 10.0321
lfoot -9.40158 3.83012
ltoes -33.215
424
root -0.992422 18.0522 20.7973 -155.981 1.99952 180.811
lowerback -22.7292 -2.51587 -8.05383
upperback 0.512409 -1.02825 0.515857
thorax 13.606 -0.976629 4.88164
lowerneck 0.188985 -6.38977 -0.315052
upperneck 25.2865 -6.74387 0.987542
head 7.79845 -2.28449 0.0614724
rclavicle 1.21259e-014 6.36111e-015
rhumerus -38.5388 -15.8703 -77.859
rradius 30.8802
rwrist -2.74317
rhand -8.8505 -57.0823
rfingers 7.12502
rthumb 17.0903 633.649
lclavicle 1.21259e-014 6.36111e-015
lhumerus -27.5035 -1.11634 81.717
lradius 22.78
lwrist -2.01352
lhand -22.5641 -12.7377
lfingers 7.12502
lthumb 3.86401 17.207
rfemur -36.902 3.9357 13.0626
rtibia 20.7316
rfoot -23.4879 -13.2013
rtoes -22.9149
lfemur -23.0198 -7.75909 -20.0104
ltibia 10.2074
lfoot -9.51588 3.8566
ltoes -32.7147
425
root -0.980619 18.0535 20.7927 -156.024 1.95364 180.832
lowerback -22.5217 -2.5153 -8.0725
upperback 0.501141 -1.05412 0.569967
thorax 13.4797 -0.988807 4.946
lowerneck 0.14613 -6.37568 -0.38785
upperneck 25.3113 -6.72418 1.01062
head 7.818 -2.27911 0.0810124
rclavicle 4.96962e-015 -1.59028e-014
rhumerus -38.6828 -15.9888 -77.5992
rradius 30.8419
rwrist -2.54484
rhand -9.5887 -56.9615
rfingers 7.12502
rthumb 16.3797 633.71
lclavicle 4.96962e-015 -1.59028e-014
lhumerus -27.4974 -1.187 81.7669
lradius 22.8001
lwrist -2.03539
lhand -22.6475 -13.0573
lfingers 7.12502
lthumb 3.78348 16.8889
rfemur -37.0079 3.93121 12.5312
rtibia 20.3041
rfoot -23.3344 -13.3401
rtoes -21.6807
lfemur -23.0831 -7.83306 -19.912
ltibia 10.3911
lfoot -9.55859 3.9153
ltoes -33.1803
426
root -0.968358 18.0547 20.7848 -156.102 1.89746 180.794
lowerback -22.3917 -2.54401 -8.16883
upperback 0.570702 -1.09002 0.608027
thorax 13.4964 -1.02042 5.03222
lowerneck 0.00620027 -6.39497 -0.308128
upperneck 25.2998 -6.7584 0.923407
head 7.83255 -2.30191 0.0322366
rclavicle -1.11319e-014 -1.98785e-014
rhumerus -38.7334 -16.1446 -77.4153
rradius 30.8289
rwrist -2.12191
rhand -9.18892 -57.3402
rfingers 7.12502
rthumb 16.7646 633.364
lclavicle -1.11319e-014 -1.98785e-014
lhumerus -27.3066 -1.31438 81.8015
lradius 22.731
lwrist -1.93831
lhand -22.8821 -13.3423
lfingers 7.12502
lthumb 3.55696 16.6078
rfemur -37.0479 3.93775 11.9249
rtibia 19.9837
rfoot -22.6275 -13.8079
rtoes -25.1553
lfemur -23.0619 -7.96662 -19.8836
ltibia 10.5736
lfoot -9.68753 4.02652
ltoes -33.3652
427
root -0.953564 18.0517 20.7731 -156.048 1.80134 180.731
lowerback -22.4963 -2.60269 -8.27083
upperback 0.60475 -1.12963 0.610704
thorax 13.6058 -1.05137 5.07993
lowerneck 0.151357 -6.40762 -0.169604
upperneck 25.0766 -6.79616 0.888926
head 7.72496 -2.32316 0.000465205
rclavicle 1.41137e-014 -1.19271e-015
rhumerus -38.831 -16.3245 -77.2751
rradius 30.775
rwrist -1.7482
rhand -8.57942 -57.7188
rfingers 7.12502
rthumb 17.3513 633.036
lclavicle 1.41137e-014 -1.19271e-015
lhumerus -27.2316 -1.64369 81.8384
lradius 22.7786
lwrist -1.69037
lhand -23.0473 -13.425
lfingers 7.12502
lthumb 3.39745 16.5277
rfemur -37.1488 4.07417 11.2043
rtibia 19.5723
rfoot -22.8277 -13.7336
rtoes -23.6999
lfemur -23.1678 -7.94658 -19.9107
ltibia 10.7794
lfoot -9.80001 3.92278
ltoes -33.1762
428
root -0.939806 18.0486 20.7505 -156.051 1.71143 180.768
lowerback -22.685 -2.61043 -8.18527
upperback 0.666962 -1.1438 0.605373
thorax 13.7868 -1.06161 5.01865
lowerneck 0.315355 -6.39597 -0.0893892
upperneck 24.9138 -6.78413 0.862875
head 7.63699 -2.3196 -0.0149232
rclavicle 9.74045e-015 2.38542e-014
rhumerus -38.9581 -16.5106 -77.1348
rradius 30.7088
rwrist -1.57474
rhand -8.50888 -58.1636
rfingers 7.12502
rthumb 17.4191 632.597
lclavicle 9.74045e-015 2.38542e-014
lhumerus -27.2284 -2.00892 81.8791
lradius 22.9245
lwrist -1.34151
lhand -23.1056 -13.2645
lfingers 7.12502
lthumb 3.34115 16.6891
rfemur -37.047 4.30161 10.5322
rtibia 18.8864
rfoot -22.6259 -13.5341
rtoes -21.847
lfemur -23.1294 -8.01809 -19.8293
ltibia 10.8938
lfoot -9.86585 4.02309
ltoes -33.3274
429
root -0.923426 18.0495 20.7302 -156.141 1.62277 180.9
lowerback -22.6306 -2.58932 -8.03503
upperback 0.687856 -1.16938 0.635573
thorax 13.7803 -1.06615 4.95799
lowerneck 0.284782 -6.5154 -0.0813045
upperneck 24.9393 -6.9465 0.812273
head 7.64996 -2.40199 -0.0445455
rclavicle -9.93923e-015 -1.35174e-014
rhumerus -39.158 -16.7533 -76.9171
rradius 30.6799
rwrist -1.13222
rhand -8.14083 -58.616
rfingers 7.12502
rthumb 17.7733 632.176
lclavicle -9.93923e-015 -1.35174e-014
lhumerus -27.2952 -2.22935 81.8708
lradius 23.0898
lwrist -1.0915
lhand -23.1416 -13.2274
lfingers 7.12502
lthumb 3.30635 16.7267
rfemur -36.8656 4.55427 10.0296
rtibia 18.2603
rfoot -21.8345 -13.6701
rtoes -22.8335
lfemur -23.0072 -8.24982 -19.571
ltibia 10.9814
lfoot -9.98746 4.28624
ltoes -33.1808
430
root -0.911345 18.0435 20.7029 -156.257 1.52272 180.899
lowerback -22.5947 -2.58454 -7.92195
upperback 0.669287 -1.19211 0.606252
thorax 13.7369 -1.06394 4.85156
lowerneck 0.584308 -6.8017 -0.218452
upperneck 24.5703 -7.40201 0.959647
head 7.48964 -2.64459 0.00760502
rclavicle -4.77083e-015 -2.38542e-014
rhumerus -39.471 -16.8336 -76.7711
rradius 30.6685
rwrist -0.763516
rhand -7.71705 -58.6507
rfingers 7.12502
rthumb 18.1811 632.179
lclavicle -4.77083e-015 -2.38542e-014
lhumerus -27.5285 -2.45518 81.8439
lradius 23.3058
lwrist -1.02535
lhand -23.209 -13.2772
lfingers 7.12502
lthumb 3.24127 16.6779
rfemur -36.6354 4.42113 9.55521
rtibia 17.7294
rfoot -21.0943 -13.6194
rtoes -24.1207
lfemur -22.7703 -8.49116 -19.5686
ltibia 11.0043
lfoot -10.1357 4.38217
ltoes -33.6763
431
root -0.899007 18.0224 20.6699 -155.957 1.45319 180.872
lowerback -23.4362 -2.63451 -7.94737
upperback 0.778221 -1.17471 0.670826
thorax 14.3488 -1.08669 4.94417
lowerneck 0.339879 -6.64976 -0.378608
upperneck 24.9288 -7.15072 0.999262
head 7.65853 -2.51153 0.0539072
rclavicle 2.06736e-014 3.26007e-014
rhumerus -39.4612 -16.7711 -76.6399
rradius 30.6862
rwrist -0.819362
rhand -7.72146 -58.4668
rfingers 7.12502
rthumb 18.1768 632.363
lclavicle 2.06736e-014 3.26007e-014
lhumerus -27.3584 -2.44566 81.9785
lradius 23.4125
lwrist -1.11327
lhand -23.4254 -13.286
lfingers 7.12502
lthumb 3.03224 16.6722
rfemur -36.8828 4.05764 9.11146
rtibia 17.2712
rfoot -20.5685 -13.285
rtoes -24.3354
lfemur -22.9909 -8.40898 -19.6698
ltibia 11.1549
lfoot -10.3266 4.25603
ltoes -34.9588
432
root -0.880154 18.025 20.6522 -156.121 1.36807 180.965
lowerback -23.1358 -2.58619 -7.90429
upperback 0.731838 -1.16169 0.718297
thorax 14.1189 -1.07091 4.97991
lowerneck 0.346806 -6.65408 -0.400471
upperneck 25.1543 -7.12711 1.06189
head 7.73654 -2.47618 0.0798202
rclavicle 2.18663e-015 1.19271e-014
rhumerus -39.8613 -16.6878 -76.4874
rradius 30.7323
rwrist -0.870385
rhand -8.01087 -58.1592
rfingers 7.12502
rthumb 17.8984 632.644
lclavicle 2.18663e-015 1.19271e-014
lhumerus -27.5187 -2.52758 81.988
lradius 23.5176
lwrist -1.05947
lhand -23.4465 -13.3155
lfingers 7.12502
lthumb 3.01186 16.6429
rfemur -36.6875 4.27645 8.65498
rtibia 16.8658
rfoot -20.5422 -13.3233
rtoes -23.6775
lfemur -22.8207 -8.5071 -19.4908
ltibia 11.3154
lfoot -10.4319 4.46217
ltoes -35.665
433
root -0.85321 18.0464 20.67 -156.412 1.36167 181.12
lowerback -22.4891 -2.46151 -7.87884
upperback 0.854465 -1.08029 0.719612
thorax 13.8794 -1.03615 4.99423
lowerneck 0.206347 -6.66436 -0.302437
upperneck 25.0661 -7.20163 1.17328
head 7.73262 -2.50426 0.0906097
rclavicle 9.93923e-016 -1.63003e-014
rhumerus -39.7062 -16.9941 -76.4555
rradius 30.4762
rwrist -0.620872
rhand -7.91677 -57.4794
rfingers 7.12502
rthumb 17.9889 633.333
lclavicle 9.93923e-016 -1.63003e-014
lhumerus -27.2002 -2.7672 81.8692
lradius 23.539
lwrist -0.947157
lhand -23.0778 -13.0754
lfingers 7.12502
lthumb 3.368 16.8777
rfemur -36.704 5.04725 8.10257
rtibia 16.8361
rfoot -20.7571 -13.8694
rtoes -24.0465
lfemur -22.8349 -8.57631 -19.0369
ltibia 11.7127
lfoot -10.4996 4.7104
ltoes -35.2499
